<svg xmlns="http://www.w3.org/2000/svg" width="328" height="126" fill="none" xmlns:v="https://vecta.io/nano"><style><![CDATA[.B{fill:#ffb27d}.C{fill:#233862}.D{fill:#f99746}.E{fill:#fff}.F{fill:#163560}.G{fill:#cfb2a2}.H{fill:#f7aa74}.I{fill:#dfbda4}.J{fill:#c4dafc}.K{fill:#7fabef}.L{fill:#1c468a}.M{fill:#afcdfb}.N{fill:#cfe3ff}.O{fill:#f9ddbf}.P{fill:#d86c23}.Q{fill:#ffb07b}.R{fill:#ef8535}.S{fill:#466aa5}]]></style><g clip-path="url(#A)"><path d="M312.527 125.385l-305.366-.062s-.432-14.941.745-31.775l.015-.198a5.81 5.81 0 0 1 .014-.199c.936-13.122 2.858-27.326 6.726-36.462l.081-.197.084-.199c.354-.847.736-1.701 1.146-2.556l.096-.199.096-.198c2.121-4.331 4.971-8.737 8.684-13.176a78.28 78.28 0 0 1 2.924-3.305 73.35 73.35 0 0 1 2.667-2.715c17.404-16.85 38.935-21.404 60.238-21.404 12.524 0 24.967 1.574 36.451 3.147s22.006 3.147 30.681 3.147c6.366 0 11.736-.846 15.765-3.161C192.327 5.1 214.344 0 234.946 0c31.721 0 60.092 12.083 68.074 34.143.322.889.612 1.794.865 2.715 1.388 5.023 1.757 10.524.927 16.481l-.027.198v.002l-.03.197v.001c-.546 3.697-1.553 7.569-3.063 11.61-4.977 13.32 1.386 20.843 7.768 27.804l.001.001.18.198.002.001c.06.067.119.133.181.197l.001.002c7.619 8.294 14.955 15.929 2.702 31.835zm-89.909-80.981c-1.197 0-2.176.979-2.176 2.175v75.885c0 1.197.979 2.176 2.176 2.176h46.331c1.197 0 2.176-.979 2.176-2.176V46.58c0-1.197-.979-2.175-2.176-2.175h-46.331zm-162.84 0c-1.197 0-2.176.979-2.176 2.175v75.885c0 1.197.979 2.176 2.176 2.176h46.331c1.196 0 2.176-.979 2.176-2.176V46.58c0-1.197-.98-2.175-2.176-2.175H59.778z" fill="#dfebfd"/><path d="M180.158 93.351h-42.507c-1.686 0-3.052-1.367-3.052-3.053V56.591c0-1.686 1.366-3.052 3.052-3.052h42.507c1.687 0 3.053 1.366 3.053 3.052v33.707c0 1.686-1.366 3.053-3.053 3.053z" class="M"/><path d="M183.012 90.298c0 1.054-.575 1.977-1.427 2.47h-.002c-.181.107-.377.194-.582.256H181c-.251.079-.517.123-.793.127l-.049.001h-42.507a2.86 2.86 0 0 1-2.853-2.854V56.591a2.86 2.86 0 0 1 2.853-2.854h42.507a2.86 2.86 0 0 1 2.854 2.854v33.707zm-2.854-36.958h-42.507c-1.792 0-3.25 1.459-3.25 3.251v33.707c0 1.793 1.458 3.251 3.25 3.251h42.507a3.23 3.23 0 0 0 1.558-.398 3.25 3.25 0 0 0 1.693-2.853V56.591c0-1.793-1.458-3.251-3.251-3.251z" fill="#588edd"/><path d="M32.891 53.538H16.067l-.096.198-1.146 2.556-.083.199-.081.198c-3.868 9.135-5.79 23.341-6.726 36.461-.006.066-.01.133-.014.199h24.97c1.687 0 3.053-1.366 3.053-3.052V56.591c0-1.686-1.367-3.052-3.053-3.052z" class="M"/><path d="M32.891 53.339H16.163l-.096.199-.096.198h16.92a2.86 2.86 0 0 1 2.853 2.854v33.707a2.85 2.85 0 0 1-1.426 2.469h-.001a2.66 2.66 0 0 1-.583.257h-.001a2.77 2.77 0 0 1-.793.126l-.049.001H7.934l-.014.199-.015.199h24.985c.564 0 1.096-.145 1.558-.399a3.25 3.25 0 0 0 1.692-2.852V56.591c0-1.793-1.457-3.251-3.251-3.251z" class="K"/><path d="M309.643 93.351h-12.631c-1.686 0-3.052-1.368-3.052-3.053V56.591c0-1.686 1.366-3.052 3.052-3.052h7.773l-.03.198v.001c-.546 3.697-1.553 7.569-3.062 11.61-4.978 13.32 1.385 20.843 7.767 27.804l.001.001.18.198.002.001z" class="M"/><path d="M309.824 93.548l-.181-.197-.002-.001-.18-.198h-12.449a2.86 2.86 0 0 1-2.853-2.854V56.591c0-1.573 1.279-2.853 2.853-2.853h7.743v-.001l.03-.198v-.001l.027-.198h-7.8c-1.792 0-3.25 1.459-3.25 3.251v33.707c0 1.793 1.458 3.252 3.25 3.252h12.813l-.001-.002z" class="K"/><path d="M108.285 46.58v75.885c0 1.197-.98 2.176-2.176 2.176H59.778c-1.197 0-2.176-.979-2.176-2.176V46.58c0-1.197.979-2.176 2.176-2.176h46.331c1.196 0 2.176.979 2.176 2.176z" class="M"/><path d="M104.242 104.294H87.183c-1.346 0-2.437-1.091-2.437-2.436V48.34c0-1.346 1.091-2.437 2.437-2.437h17.059c1.346 0 2.437 1.091 2.437 2.437v53.518c0 1.345-1.091 2.436-2.437 2.436z" class="N"/><path d="M83.334 44.404v80.236h-.202V44.404h.202z" class="K"/><path d="M106.679 90.612v-.507l.091.06-.091.447z" class="G"/><path d="M106.554 91.226L84.747 77.144l.06-1.162 21.872 14.123v.507l-.125.614z" class="I"/><path d="M106.679 96.853v-.6l.274.177-.274.423zM84.747 83.292l-.071-.046.071-.202v.248z" class="G"/><path d="M106.406 97.276L84.747 83.292v-.248l.274-.776 21.659 13.984v.601l-.273.423z" class="I"/><path d="M62.267 104.294h17.059c1.346 0 2.436-1.091 2.436-2.436V48.34c0-1.346-1.091-2.437-2.436-2.437H62.267c-1.346 0-2.437 1.091-2.437 2.437v53.518c0 1.345 1.091 2.436 2.437 2.436z" class="N"/><path d="M59.831 90.612l-.091-.447.091-.06v.507z" class="G"/><path d="M59.956 91.226l-.125-.614v-.507l21.872-14.123.06 1.162-21.807 14.081z" class="I"/><path d="M59.831 96.853l-.274-.423.274-.177v.6zm21.932-13.561v-.248l.071.202-.071.046z" class="G"/><path d="M60.104 97.276l-.274-.423v-.601l21.658-13.984.274.776v.248L60.104 97.276z" class="I"/><g class="K"><path d="M87.183 46.144a2.2 2.2 0 0 0-2.197 2.196v53.518a2.2 2.2 0 0 0 2.197 2.196h17.059a2.2 2.2 0 0 0 2.197-2.196V48.34a2.2 2.2 0 0 0-2.197-2.196H87.183zm17.059 58.39H87.183a2.68 2.68 0 0 1-2.676-2.676V48.34a2.68 2.68 0 0 1 2.676-2.676h17.059a2.68 2.68 0 0 1 2.676 2.676v53.518a2.68 2.68 0 0 1-2.676 2.676zm-41.975-58.39a2.2 2.2 0 0 0-2.197 2.196v53.518a2.2 2.2 0 0 0 2.197 2.196h17.059a2.2 2.2 0 0 0 2.197-2.196V48.34a2.2 2.2 0 0 0-2.197-2.196H62.267zm17.059 58.39H62.267a2.68 2.68 0 0 1-2.676-2.676V48.34a2.68 2.68 0 0 1 2.676-2.676h17.059a2.68 2.68 0 0 1 2.676 2.676v53.518a2.68 2.68 0 0 1-2.676 2.676z"/></g><path d="M271.125 46.58v75.885c0 1.197-.979 2.176-2.176 2.176h-46.331c-1.197 0-2.176-.979-2.176-2.176V46.58c0-1.197.979-2.176 2.176-2.176h46.331c1.197 0 2.176.979 2.176 2.176z" class="M"/><path d="M267.082 104.294h-17.059c-1.345 0-2.436-1.091-2.436-2.436V48.34c0-1.346 1.091-2.437 2.436-2.437h17.059a2.44 2.44 0 0 1 2.438 2.437v53.518c0 1.345-1.091 2.436-2.438 2.436z" class="N"/><path d="M246.175 44.404v80.236h-.202V44.404h.202z" class="K"/><path d="M269.52 90.612v-.507l.091.06-.091.447z" class="G"/><path d="M269.394 91.226l-21.807-14.081.061-1.162 21.872 14.123v.507l-.126.614z" class="I"/><path d="M269.52 96.853v-.6l.273.177-.273.423zm-21.933-13.561l-.071-.046.071-.202v.248z" class="G"/><path d="M225.108 104.294h17.058c1.346 0 2.437-1.091 2.437-2.436V48.34c0-1.346-1.091-2.437-2.437-2.437h-17.058c-1.346 0-2.437 1.091-2.437 2.437v53.518c0 1.345 1.091 2.436 2.437 2.436z" class="N"/><path d="M222.671 90.611l-.091-.446.091-.06v.506z" class="G"/><path d="M222.796 91.226l-.125-.615v-.506l21.872-14.123.06 1.162-21.807 14.081z" class="I"/><path d="M222.671 96.853l-.274-.423.274-.177v.6zm21.932-13.561v-.248l.072.202-.072.046z" class="G"/><g class="I"><path d="M222.944 97.276l-.273-.423v-.601l21.659-13.984.273.776v.248l-21.659 13.984zM269.226 97l.274-.423v-.6L247.774 82l-.274.775v.248L269.226 97z"/></g><g class="K"><path d="M250.023 46.144a2.2 2.2 0 0 0-2.196 2.196v53.518a2.2 2.2 0 0 0 2.196 2.196h17.06a2.2 2.2 0 0 0 2.196-2.196V48.34a2.2 2.2 0 0 0-2.196-2.196h-17.06zm17.06 58.39h-17.06a2.68 2.68 0 0 1-2.675-2.676V48.34a2.68 2.68 0 0 1 2.675-2.676h17.06a2.68 2.68 0 0 1 2.676 2.676v53.518a2.68 2.68 0 0 1-2.676 2.676zm-41.975-58.39a2.2 2.2 0 0 0-2.197 2.196v53.518a2.2 2.2 0 0 0 2.197 2.196h17.058a2.2 2.2 0 0 0 2.198-2.196V48.34a2.2 2.2 0 0 0-2.198-2.196h-17.058zm17.058 58.39h-17.058a2.68 2.68 0 0 1-2.676-2.676V48.34a2.68 2.68 0 0 1 2.676-2.676h17.058a2.68 2.68 0 0 1 2.676 2.676v53.518a2.68 2.68 0 0 1-2.676 2.676z"/></g><g fill="#2c3a64"><path d="M146.921 109.7s-.548 8.384.274 11.926c0 0 2.451.494 3.613.201l.308-8.566-4.195-3.561zm8.534 11.002s1.223 1.509 1.695 1.706 1.676.806 2.45.976 1.396.646 1.494 1.289h-8.419s-.302-1.071 0-1.892-.806-3.439-.806-3.439l3.586 1.36z"/><path d="M149.89 120.54s1.062 1.671 1.533 1.868 1.677.806 2.45.976 1.396.646 1.494 1.289h-8.42s-.3-1.071 0-1.892.345-4.111.345-4.111l2.598 1.87z"/></g><path d="M128.153 86.852c-1.913 1.193-5.786-.1-5.786-.1s1.004-1.254.94-3.293c-.014-.494-.093-1.033-.262-1.613l1.574.715 1.69.768s.13.525.246 1.475l.084.816c1.02.261 1.514 1.233 1.514 1.233z" class="Q"/><path d="M126.555 84.804c-2.744-.062-3.341-2.378-3.511-2.958l1.575.715 1.69.768s.13.525.246 1.475z" fill="#ea8e50"/><path d="M126.636 83.925s-3.599.04-3.589-2.202-.45-3.749 1.85-3.868 2.741.736 2.921 1.486-.244 4.515-1.182 4.584z" class="Q"/><path d="M129.025 78.156c.321-.64.413-1.184.413-1.184s-.586.518-1.664-.365-3.021-1.95-4.53-1.075a3.18 3.18 0 0 0-.281.183c.092-.364.368-.814.368-.814-.607.407-.88 1.256-.88 1.256l-.053.055c-.399.036-1.073.548-1.073.548.205-.13.474-.122.69-.079-.712 1.005-.994 2.278-.481 3.075.749 1.166.97.832 1.536 2.273 0 0 .529-.153.501-.524s-.517-1.227.133-1.285.527.434.843.303.046-1.344 1.464-1.312 2.694-.418 3.014-1.057z" class="C"/><path d="M125.338 104.409l8.995-1.012s11.233-.009 13.748 1.35c3.125 1.688 8.004 16.751 8.004 16.751s-1.09 1.102-3.195.523c-1.162-.319-6.622-8.851-7.456-11.948-.433-1.608-14.802 1.696-17.576.535s-2.52-6.199-2.52-6.199z" class="L"/><path d="M134.515 103.275c-.046.061-.105.104-.182.122-.516.112-1.699.6-2.995.947-.497.134-1.012.246-1.512.309a11.03 11.03 0 0 1-1.835.086c-.868-.028-1.736-.149-2.653-.33-.207-.041-.691-.172-.73-.383l-.169-.995c-.236-1.479-.639-4.023-1.475-6.874l-.327-1.214-.089-.372-.49-2.669c-.365-2.821-.144-5.222.847-6.392.111-.126 1.022.085 1.858.283.775.183 1.477.06 2.103-.224l.791.43c.97.557 2.077 1.364 2.811 2.808.625 1.229 1.356 3.536 2.023 5.948l.849 3.251.01.038c.033.101.059.216.084.321l1.081 4.911z" class="E"/><path d="M140.811 91.729l-3.446 4.302 3.737.28 2.95-4.001-3.241-.581z" fill="#b64c41"/><path d="M143.135 90.439l.917 1.871-2.582-.462 1.665-1.409z" fill="#aa413e"/><path d="M143.807 92.093l-.946-1.653-1.592 1.372 2.538.282z" class="E"/><path d="M141.069 91.775l.065-.223 2.673.541.11.194-2.848-.511z" fill="#b2cbfd"/><path d="M141.134 91.552l-.177.203.139.025.038-.228z" fill="#739cf3"/><g class="Q"><path d="M139.425 95.157l-.338 1.808s-6.433 5.314-8.58 5.134c-1.059-.088-2.884-3.226-4.465-6.388l-.002-.003-2.996-6.539c.072-2.413 5.274-1.806 5.963-1.111.362.365 1.228 2.749 1.983 5.034v.003l1.319 4.396c.114.778 7.116-2.334 7.116-2.334z"/><path d="M139.425 95.157s.476-.946 1.085-.963 1.847-.732 2.17-.581-1.032 2.974-1.823 2.974-3.377.88-3.377.88l1.945-2.311z"/></g><path d="M130.99 93.096s-1.839 2.003-4.948 2.615l-.002-.003-2.996-6.539c.072-2.413 5.274-1.806 5.963-1.111.362.365 1.228 2.749 1.983 5.034v.003z" class="E"/><path d="M140.768 125.1h-10.616v-13.713h10.616V125.1z" class="J"/><g class="D"><path d="M143.971 111.387h-13.928a7.08 7.08 0 0 1-6.705-4.805l-5.772-17.006a1.76 1.76 0 0 1 1.099-2.228 1.76 1.76 0 0 1 2.228 1.099l5.772 17.007c.491 1.448 1.849 2.421 3.378 2.421h13.928c.971 0 1.757.786 1.757 1.756s-.786 1.756-1.757 1.756z"/><path d="M140.768 101.857h-18.699v-2.536h16.163c1.4 0 2.536 1.135 2.536 2.536z"/></g><path d="M144.434 124.641h-17.467a1.85 1.85 0 0 1 1.849-1.849h13.768a1.85 1.85 0 0 1 1.85 1.849z" class="J"/><g class="D"><path d="M308.772 108.484h-13.929c-3.035 0-5.729-1.93-6.704-4.803l-5.771-17.008c-.313-.919.179-1.916 1.098-2.228s1.915.181 2.227 1.099l5.772 17.008c.491 1.448 1.849 2.421 3.378 2.421h13.929c.97 0 1.756.787 1.756 1.756s-.786 1.755-1.756 1.755z"/><path d="M305.568 98.954h-18.699v-2.536h16.163c1.401 0 2.536 1.136 2.536 2.536z"/></g><path d="M309.235 124.641h-17.468a1.85 1.85 0 0 1 1.849-1.849h13.769a1.85 1.85 0 0 1 1.85 1.849z" class="J"/><path d="M303.885 36.858H27.772l2.667-2.715H303.02l.865 2.715z" class="D"/><g class="F"><path d="M192.788 44.02c-.166 0-.3-.14-.3-.313V37.3c0-.174.134-.314.3-.314s.3.14.3.314v6.407c0 .173-.134.313-.3.313z"/><path d="M192.787 44.335c-.614 1.78-1.454 4.879-.751 5.997.165.264.406.389.757.396.345.008.582-.107.744-.355.712-1.087-.135-4.233-.75-6.038zm.031 7.039h-.035a1.45 1.45 0 0 1-1.263-.687c-.503-.802-.485-2.3.055-4.451a26.07 26.07 0 0 1 .928-2.928l.287-.729.284.73c.021.057.54 1.397.93 2.97.54 2.178.555 3.679.042 4.46-.273.417-.697.636-1.228.636zm.029-13.917a.41.41 0 0 1-.103-.013c-.19-.05-.298-.225-.241-.391.619-1.81.031-2.845.025-2.854-.091-.154-.021-.344.155-.423s.393-.018.483.136c.031.051.725 1.272.025 3.321-.047.136-.189.224-.344.224z"/></g><g class="R"><path d="M205.388 87.471s-.926 1.176-.891 1.595.64 1.08 1.15 1.159.904-.944.785-2.047-1.044-.706-1.044-.706zm-1.551-22.283s6.051 11.148 5.793 12.233-2.573 2.089-3.554 1.839c-.955-.243-6.39-8.213-6.274-8.553s4.035-5.519 4.035-5.519z"/><path d="M207.114 87.579c1.372-3.793 2.529-10.275 2.529-10.275l-3.908-.349s-1.368 8.971-.661 10.79c0 0 1.553 1.179 2.04-.165z"/></g><path d="M191.719 53.019s-.428-1.968-.194-2.513 1.19-1.164 1.77-1.05.513 1.649-.134 3.07-1.442.493-1.442.493z" class="B"/><g class="F"><path d="M201.747 121.678s-.182 2.917-.746 2.958c-.075.005-2.861.005-2.861.005l-3.558-.02s.023-.858 1.063-1.038 2.781-.913 3.41-2.287c.663-1.445 2.692.382 2.692.382zm7.922 0s-.181 2.917-.744 2.958c-.075.005-2.862.005-2.862.005l-3.557-.02s.023-.858 1.063-1.038 2.78-.913 3.41-2.287c.662-1.445 2.69.382 2.69.382z"/><path d="M197.807 90.335s.93 5.951 4.401 16.513 3.943 15.137 3.943 15.137l3.723-.104s.032-11.544-1.567-16.856-.346-19.149-.346-19.149l-10.154 4.459z"/></g><path d="M195.994 86.202s-.131 8.967 1.42 19.976 1.026 15.684 1.026 15.684l3.716.123s2.22-11.014 1.583-16.525 3.042-18.908 3.042-18.908l-10.787-.349z" class="L"/><path d="M203.188 65.219l-1.753 1.298-2.533-.533.355-2.056.027-.152.244-1.371 2.364-1.18.883-.439c-.003.016-.069.819-.078.937-.165 2.082.491 3.497.491 3.497z" class="B"/><path d="M199.079 64.564c.056-.024 3.446-1.024 3.814-.903s.586.834.586.834l-5.544 1.254s.436-.888 1.144-1.186z" class="R"/><path d="M208.208 87.309c-.574 2.623-10.138 2.933-12.603.554-.28-.271-.294-1.533-.188-3.235.146-2.331.515-5.486.732-8.044.092-1.09.157-2.071.165-2.835.013-1.234.182-2.495.408-3.641.163-.831.571-1.665 1.039-2.405.907-1.437 2.038-2.515 2.038-2.515s2.807-.948 3.68-.692c4.211 1.238 5.303 20.193 4.729 22.813z" class="D"/><path d="M202.52 61.759c-.52.994-2.456 1.854-3.263 2.169l.027-.152.244-1.371 2.364-1.18c.524-.008.842.125.628.534z" fill="#fca56b"/><path d="M198.378 62.266s4.267 1.331 5.056-1.339 1.87-4.298-.823-5.26-3.523-.1-4.004.727-1.319 5.457-.229 5.873z" class="B"/><path d="M198.776 56.136s.272 3.108.915 2.973 1.225-.236 1.131.702-.986 2.018.995 2.184 4.828-4.943 4.284-5.91c-1.57-2.79-9.595-3.354-7.325.051z" class="F"/><path d="M200.708 70.828s-1.081 4.725-4.559 5.755l.165-2.835c.013-1.234.182-2.495.408-3.641.163-.831.571-1.665 1.039-2.405 1.509 1.117 2.947 3.125 2.947 3.125z" class="R"/><path d="M201.853 65.188s-.931-1.036-2.596-1.26c-1.505-.201-6.813-2.357-7.007-3.048-.141-.508 1.215-9.042 1.231-8.853 0 0-.953-.996-2.081-.385 0 0-3.702 9.978-3.072 11.312.967 2.048 12.796 8.268 12.61 8.972-.371 1.401.915-6.738.915-6.738z" class="D"/><g class="F"><path d="M159.205 44.09c-.166 0-.3-.142-.3-.314v-6.407c0-.173.134-.314.3-.314s.3.141.3.314v6.407c0 .173-.134.314-.3.314z"/><path d="M159.203 44.404c-.613 1.78-1.453 4.878-.75 5.997.165.263.407.389.757.396s.582-.107.744-.356c.711-1.086-.135-4.233-.751-6.037zm.032 7.038h-.035c-.55-.01-.986-.247-1.263-.687-.503-.802-.485-2.3.055-4.451.39-1.556.906-2.873.927-2.928l.288-.729.284.731c.021.056.54 1.397.93 2.968.54 2.179.554 3.679.042 4.461-.273.417-.697.635-1.228.635zm.029-13.917a.38.38 0 0 1-.103-.013c-.189-.049-.298-.224-.241-.391.618-1.81.031-2.843.025-2.854-.091-.153-.021-.343.155-.422s.393-.018.483.136c.031.05.725 1.27.025 3.32-.047.136-.189.224-.344.224zm60.779 9.323c-.165 0-.3-.178-.3-.398v-8.126c0-.22.135-.398.3-.398s.3.178.3.398v8.126c0 .22-.135.398-.3.398z"/><path d="M220.041 47.247c-.614 2.257-1.452 6.186-.751 7.606.167.334.407.494.759.501.343.01.58-.135.744-.45.711-1.377-.135-5.367-.752-7.657zm.031 8.926h-.034c-.551-.013-.987-.314-1.263-.871-.504-1.017-.485-2.916.055-5.647l.928-3.713.287-.925.284.926a41.51 41.51 0 0 1 .93 3.767c.54 2.762.554 4.665.043 5.656-.273.528-.698.806-1.23.806zm.03-17.65a.3.3 0 0 1-.102-.017c-.191-.063-.298-.284-.242-.495.618-2.295.031-3.607.024-3.62-.09-.196-.021-.435.156-.536s.392-.023.484.173c.029.064.724 1.612.024 4.211-.046.173-.19.285-.344.285zm-65.714 5.567c-.166 0-.3-.142-.3-.314v-6.407c0-.173.134-.314.3-.314s.3.141.3.314v6.407c0 .173-.135.314-.3.314z"/><path d="M154.386 44.404c-.614 1.78-1.453 4.878-.751 5.997.166.263.407.389.758.396.344.007.581-.107.744-.356.712-1.086-.135-4.233-.751-6.037zm.031 7.038h-.035c-.55-.01-.986-.247-1.263-.687-.502-.802-.485-2.3.056-4.451a26.07 26.07 0 0 1 .928-2.928l.287-.729.284.731a27.49 27.49 0 0 1 .93 2.968c.539 2.179.554 3.679.042 4.461-.273.417-.697.635-1.229.635zm.03-13.917c-.034 0-.069-.003-.103-.013-.19-.049-.298-.224-.241-.391.618-1.81.03-2.843.024-2.854-.091-.153-.021-.343.155-.422s.393-.018.484.136c.03.05.725 1.27.024 3.32-.045.136-.189.224-.343.224zm-22.136 6.565c-.165 0-.3-.142-.3-.314v-6.407c0-.173.135-.314.3-.314s.301.141.301.314v6.407c0 .173-.135.314-.301.314z"/><path d="M132.31 44.404c-.614 1.78-1.453 4.878-.75 5.997.165.263.405.389.757.396.345.007.581-.107.744-.356.711-1.086-.135-4.233-.751-6.037zm.032 7.038h-.036c-.549-.01-.987-.247-1.262-.687-.504-.802-.485-2.3.054-4.451.39-1.556.907-2.873.928-2.928l.287-.729.284.731a27.24 27.24 0 0 1 .93 2.968c.54 2.179.555 3.679.043 4.461-.273.417-.697.635-1.228.635zm.028-13.917c-.034 0-.068-.003-.102-.013-.191-.049-.298-.224-.242-.391.618-1.81.031-2.843.025-2.854-.091-.153-.021-.343.156-.422s.393-.018.483.136c.029.05.724 1.27.024 3.32-.046.136-.188.224-.344.224z"/></g><path d="M228.982 61.402s3.399-4.085 5.198-1.471c0 0 1.342.557 1.827 2.841.496 2.331-1.054 4.103-1.855 3.666-.515-.282-.903.618-.903.618l-4.267-5.654z" class="C"/><path d="M228.47 70.569s-.22-.545-1.293-1.175-5.3-4.034-5.572-5.169l-1.5-6.906h-1.045l.602 8.319c.272.818 5.631 7.85 7.095 8.193l1.713-3.262z" class="B"/><path d="M242.451 86.977c-.093.23-.503.433-1.095.579-1.324.33-3.556.373-5.184-.23-1.746-.647-3.012-9.875-3.551-14.603l-.287-2.753s1.003-1.57 4.884-1.046 4.274 1.832 4.622 4.187.916 13.125.611 13.867z" class="S"/><path d="M241.356 87.556c-1.324.33-3.556.373-5.184-.23-1.746-.647-3.012-9.875-3.551-14.603.46-1.628.825-2.699.825-2.699s4.873-.588 5.821.883c.849 1.316 1.881 13.987 2.089 16.649z" fill="#2b478b"/><path d="M233.809 59.517s.457-1.828 3.141-1.256c0 0-1.285-.162-1.637.333 0 0 1.019-.467 1.656-.076s.743 1.704.647 2.104-.799 1.59-1.266 1.59-1.018-.41-1.018-.41l-1.523-2.284z" class="C"/><path d="M237.826 88.124c-1.335-2.994-1.973-3.84-1.996-4.782-.017-.745.349-1.549 1.063-3.519.168-.465.284-.942.356-1.425.564-3.8-1.633-7.906-2.998-8.186-.38-.101-1.024-1.473-1.016-3.684l-.171.034-2.876.57.067 1.757c.002.71-.04 1.384-.201 1.468l-.33.032s-2.397 3.329-2.598 6.426 1.92 4.441-.017 10.629c-1.976 6.32 11.455 2.335 10.717.681z" class="B"/><path d="M230.188 67.133l.067 1.757c1.609-.046 2.46-1.513 2.809-2.327l-2.876.57z" fill="#fca56b"/><path d="M233.361 66.25s.843-1.333 1.045-2.471c.145-.814-.27-3.828-3.299-3.394 0 0-.88.086-1.707.645-.658.444-1.608 1.403-.546 4.034l.276.889 4.231.298z" class="C"/><path d="M229.651 67.94s3.807.062 3.809-2.308.496-3.961-1.934-4.101-2.904.764-3.097 1.556.231 4.775 1.222 4.854z" class="B"/><g class="C"><path d="M229.792 61.473s1.042 2.781 2.642 3.193 2.293-.017 2.293-.017-1.227-.975-1.481-2.676c0 0-2.668-1.823-3.454-.499z"/><path d="M230.05 61.698s-.778.621-.967 1.225-.276 1.847-.638 1.805c0 0-.785-1.891.097-2.96.935-1.135 1.508-.07 1.508-.07z"/></g><path d="M234.455 116.851c-.957 3.809-2.398 6.73-2.398 6.73l-1.256-.087s.615-2.929.58-6.885c-.025-2.767-.367-6.036-1.46-9.158-3.756-10.726-3.149-18.533-3.149-18.533l7.063.826.33.039.186 11.092.122 5.418c1.357 2.925.864 7.053-.018 10.559z" fill="#b24646"/><path d="M242.777 91.304l-1.144.343s-3.769-6.255-4.111-7.882l-.706-2.778-1.517-5.471-.281-1.218-.96-4.156s1.837.188 2.912.637c.357.148.628.325.722.534.79 1.736 1.579 6.117 2.132 9.243l.668 3.38c.343.8 1.389 5.199 2.285 7.369z" class="B"/><path d="M238.508 116.243c-.407 4.333-2.195 7.136-2.195 7.136l-.599.437-.97-6.687c-.382-3.454-.907-7.107-1.5-8.222-2.356-4.424-3.065-21.122-3.065-21.122l7.162-.356c.72 1.211 1.034 3.197 1.108 5.455.189 5.699-1.15 13.129-1.351 14.204l-.001.002c-.015.084.009.165.047.24 1.425 2.821 1.632 6.048 1.364 8.912z" fill="#ce544e"/><path d="M229.906 61.793s.742 2.913 2.761 3.845c0 0-2.019-1.789-2.19-3.713s-.571-.133-.571-.133z" class="C"/><path d="M224.209 124.634l-.007.007h-.393l.103-.007h.297z" fill="#283250"/><g class="B"><path d="M242.695 91.114s.348.819.71 1.047.876.78.78 1.218-.19 1.124-.647 1.124-1.523-2.019-1.657-2.4-.247-.457-.247-.457l1.061-.533zm-22.499-33.366s-.104-1.191.085-1.575.338-1.124.028-1.447-.751-.857-1.141-.618-.241 2.517-.155 2.911a9.94 9.94 0 0 1 .138 1.015l1.045-.286z"/></g><path d="M238.724 90.286c.013.242-.002.434-.045.572-.152.48-.676.698-1.941.567-.773-.081-1.118-1.376-1.271-2.481-.465 1.582-1.115 2.469-1.955 2.655-1.227.273-7.414 1.025-7.819-1.916-.445-3.235.889-8.962.962-12.05-.182-1.095-.244-2.046-.224-2.862.051-2.2.697-3.433 1.193-3.929.141-.109.282-.175.846-.273.288-.049.688-.106 1.254-.18l.227-.019c-.105.187-1.506 2.309-1.397 2.856.114.571 5.084.056 5.427-.258s.884-2.719.884-2.719 1.76.192 2.621.818l-.009.011c.104.075.182.154.226.238.918 1.749 1.835 6.161 2.48 9.309-1.563.862-2.929.605-3.352.492.553 3.624 1.81 7.517 1.893 9.169z" class="O"/><path d="M229.724 70.389l-.007.013c-.169.267-2.809 4.486-3.062 7.231-.182-1.095-.244-2.046-.224-2.862.339-1.037 1.889-3.392 2.683-4.329.057-.068.61-.052.61-.052z" class="S"/><g class="B"><path d="M238.508 116.243c-.407 4.333-2.195 7.137-2.195 7.137l-.61.555-.959-6.806c.424.031 2.289.098 3.764-.886zm-4.053.608c-.957 3.809-2.398 6.73-2.398 6.73l-1.256-.087s.615-2.929.58-6.885c.425.214 1.305.432 3.074.242z"/></g><path d="M232.779 124.634h-.802l-.742-.156c-.417-.055-.61.117-.648.156l-.008.007h-3.404c-.085-.122-.004-.404.077-.613.054-.142.173-.249.319-.292.361-.104 1.072-.198 1.724-.787.367-.332 1.771-1.219 1.771-1.219l.007-.002c.031.001.177.046.817.585.33.279.892-.392.892-.392s.106.087.185.25c.063.128.11.305.073.522-.051.307.113.877.244 1.263l.146.399s.038.193-.651.279z" fill="#ed8435"/><g class="D"><path d="M232.967 122.171c-.191.135-.595.4-.864.435-.361.047-1.037-.876-1.037-.876l.007-.002c.031.001.177.046.817.585.33.279.892-.392.892-.392s.106.087.185.25zm-.188 2.463h-.802l-.742-.156c-.417-.055-.61.117-.648.156l-.008.007h-3.404c-.085-.122-.004-.404.077-.613.103-.093.132.399.19.477s2.777.029 2.934-.086.629-.314 1.285-.156c.572.136 1.415-.215 1.623-.307l.146.399s.038.193-.651.279z"/></g><path d="M237.056 124.634h-.802l-.742-.156c-.418-.055-.611.117-.649.156l-.008.007h-3.403c-.086-.122-.003-.404.077-.613.053-.142.172-.249.319-.292.36-.104 1.072-.198 1.724-.787.366-.332 1.771-1.219 1.771-1.219l.007-.002c.031.001.178.046.816.585.33.279.893-.392.893-.392s.106.087.184.25c.064.128.11.305.073.522-.05.307.113.877.245 1.263l.146.399s.038.193-.651.279z" fill="#ffa35f"/><g class="D"><path d="M237.243 122.171c-.191.135-.595.4-.863.435-.361.047-1.037-.876-1.037-.876l.007-.002c.031.001.178.046.816.585.33.279.893-.392.893-.392s.106.087.184.25zm-.187 2.463h-.802l-.742-.156c-.418-.055-.611.117-.649.156l-.008.007h-3.403c-.086-.122-.003-.404.077-.613.103-.093.132.399.189.477s2.777.029 2.934-.086.629-.314 1.286-.156c.572.136 1.414-.215 1.623-.307l.146.399s.038.193-.651.279z"/></g><path d="M238.724 90.286c-.85-.284-1.941-1.039-3.25-2.731-3.467-4.481-.294-9.747.131-9.845s1.226 3.407 1.226 3.407c.554 3.624 1.81 7.516 1.893 9.169z" fill="#eac3a2"/><path d="M236.782 69.926s-3.489 2.377-3.75 7.413 4.273 6.062 4.273 6.062l-.294-1.593s-3.674-1.329-2.715-5.342 3.838-6.192 3.838-6.192l-1.352-.349z" class="S"/><path d="M229.114 70.442s-.815-.23-3.858-2.539l-.539 1.809c-.375 1.091-1.045 1.545-1.045 1.545s2.439 2.382 2.759 3.515c0 0 .897-2.65 2.683-4.329z" class="O"/><path d="M45.113 121.006c-.094.59.722.789 1.675.9s.651.287 1.946.611 1.844 0 1.95-.171c.095-.151-.498-.437-1.129-.758l-.239-.122c-.709-.37-1.076-1.053-1.606-1.698-.502-.611-.892-2.488-.892-2.488l-1.756-.498.517 2.412c.075.423-.107.879-.264 1.223-.085.189-.171.381-.203.589z" class="B"/><path d="M46.788 121.906c.953.111.651.287 1.946.611s1.844 0 1.95-.171c.095-.151-.498-.437-1.129-.758l-.011.011s-.942.251-1.987-.108c-.851-.293-1.655-.866-2.241-1.074-.085.189-.171.381-.204.589-.094.59.722.789 1.675.9z" class="C"/><path d="M33.272 120.779c-.361.474.264 1.035 1.051 1.583s.438.562 1.425 1.46 1.624.872 1.799.771c.155-.088-.232-.621-.637-1.202l-.152-.22c-.45-.661-.451-1.436-.612-2.255-.153-.776 1.114-3.627 1.114-3.627l-2.035-.256-.494 2.415c-.134.409-.7.678-1.002.909-.164.125-.33.254-.457.422z" class="B"/><path d="M34.323 122.362c.787.549.438.562 1.425 1.46s1.624.872 1.799.771c.155-.088-.232-.621-.637-1.202l-.014.005s-.949-.224-1.7-1.035c-.612-.66-1.049-1.545-1.468-2.004-.164.125-.33.254-.457.422-.361.474.264 1.035 1.051 1.583z" class="C"/><path d="M41.584 106.202l-1.859 5.002-2.427 6.531s-.659.064-1.289-.118c-.581-.167-1.247-.606-1.247-.606s.674-7.013 1.931-11.038c.322-1.034.683-1.869 1.082-2.34 1.949-2.303 3.809 2.569 3.809 2.569z" fill="#af4138"/><path d="M41.892 99.553c-1.062-.715-7.677-1.615-11.219-1.923l-.201-1.457-4.111-2.123s-3.914 4.613-3.576 8.366c.028.31.238 1.077.417 1.691a1.2 1.2 0 0 0 1.153.866l14.121.05c.9.074.752 1.876 1.089 3.908s5.728 10.219 5.728 10.219 1.096.327 1.599.286c.541-.042.788-.228.788-.228s-3.393-18.045-5.788-19.655z" fill="#c65447"/><path d="M28.462 74.996c-1.052-.287-2.501-.038-2.741-.018-2.872.239-3.658 4.662-3.486 5.911.317 2.304-.805 2.913-2.178 4.701-2.753 3.587-1.035 6.671 1.083 7.492 1.271.492 3.063-.674 3.063-.674.032.013 4.69-4.15 6.993-6.17 3.806-1.424-.053-10.508-2.733-11.241z" class="C"/><path d="M28.728 85.493c.013.004-1.19.735-2.145.542-.898-.182-1.815-1.391-1.803-1.396.369-.099.706-.514.55-2.719l.171.022 2.877.373.05 1.739c.045.707.133 1.374.3 1.439z" class="B"/><path d="M28.379 82.315l.05 1.739c-1.592.061-2.528-1.332-2.926-2.112l2.877.373z" fill="#ed975d"/><path d="M28.963 83.076s-3.755.313-3.914-2.029-.751-3.877 1.639-4.176 2.918.562 3.161 1.33.086 4.732-.886 4.874z" class="B"/><g class="C"><path d="M29.442 76.989s-1.892 2.526-3.444 3.038-2.266.135-2.266.135.765-.983 1.052-2.362c.085-.407.38-.737.776-.861 1.112-.347 3.252-.865 3.882.05z"/><path d="M27.943 77.13s.947.583 1.316 1.089c.356.488.712 1.766.636 2.32 0 0 .696-2.634-.246-3.632-.999-1.057-1.707.223-1.707.223z"/></g><path d="M31.634 91.713c-.113 7.559-.031 5.98-.858 6.696-.199.173-.759.276-1.496.324-2.318.154-6.393-.227-6.548-.656-.535-1.483-.157-1.943-.603-4.212l-.172-.786c-.372-1.559-.734-2.09.586-4.594 1.197-2.268 2.44-4.109 2.551-4.042 3.157 1.874 3.412.299 3.412.299s3.183 3.283 3.128 6.971z" class="E"/><path d="M39.725 111.204l-2.482 6.803s-.892.29-1.541.197c-.662-.097-1.024-.458-1.024-.458s.758-7.748 2.015-11.773l3.032 5.231z" fill="#c65447"/><path d="M28.506 84.743s3.248.55 3.63 1.949 3.171 9.105 3.171 9.105-2.196 1.448-2.959.684-2.655-7.712-2.655-7.712l-1.187-4.026z" class="E"/><path d="M29.28 98.734c-2.318.154-6.392-.227-6.547-.656-.535-1.483-.157-1.943-.603-4.212l1.087-2.475s-.154 2.833.88 3.754 4.233 1.781 4.735 2.551c.242.37.402.741.448 1.038z" fill="#dfebfd"/><g class="B"><path d="M29.391 97.59s.479.618.636.692.259.054.259.054l-.323-.581-.572-.165z"/><path d="M29.28 96.953l1.393.677s-.059.098-.231.089-.604-.165-.604-.165l-.558-.6z"/></g><path d="M26.624 97.26s2.287-.509 2.656-.307 1.271.942 1.384 1.2-.822-.196-1.125-.277c-.197-.052-.715.127-.971.213-1.079.36-1.741.175-1.741.175l-.202-1.004z" fill="#ed975d"/><path d="M25.093 84.442s-3.071.189-4.133 1.672c-1.496 2.086-4.465 10.98-2.763 12.167 1.916 1.336 8.719.349 8.719.349s.226-1.058-.089-1.57-5.434-1.339-5.67-1.575 2.334-3.653 2.06-4.307c-.877-2.095 1.876-6.737 1.876-6.737z" class="E"/><g class="B"><path d="M40.518 98.163s1.896.512 2.091.807.577 1.194.56 1.429-.534-.466-.728-.644c-.126-.116-.58-.184-.804-.22-.563-.092-.835-.35-1.047-.479-.142-.086-.314-.07-.314-.07l.241-.825z"/><path d="M42.444 99.485s.115.645.203.762.171.141.171.141l-.014-.557-.36-.346z"/><path d="M42.609 98.97l.771 1.044s-.082.049-.206-.024-.384-.358-.384-.358l-.181-.662zm-2.018.087s.176.427.527.58.608.383.665.3-.266-.518-.266-.518l-.926-.362z"/></g><path d="M34.651 94.61l6.156 3.615s-.178.749-.36.816c-.962.353-6.617-.334-8.099-2.56l2.303-1.871z" class="E"/><path d="M94.663 73.873c-.238-.458 5.189-2.11 5.275 2.417 0 0 10.165-.25 5.311-5.916-1.68-1.961-1.507-3.583-1.457-5.093s-1.047-5.898-4.809-5.456c0 0-.985-.401-2.215.237-2.797 1.451-9.062 15.481-2.105 13.812z" class="F"/><path d="M111.282 78.935s.662-1.007 1.195-1.027 1.521-.297 1.442-.099-.692.216-.75.335.908.297 1.184.316.929 0 .909.138-1.174.711-1.989.632-1.823.237-1.823.237l-.168-.533z" class="B"/><path d="M101.712 79.26s.36.713 1.013 1.531c.786.986 1.998 2.123 3.521 2.347.726.108 1.438-.049 2.092-.339l.002-.001c1.848-.82 3.238-2.707 3.238-2.707.326-.889-.207-1.491-.207-1.491s-3.733.84-4.088.661-2.43-6.152-2.923-6.903-2.178-1.14-2.178-1.14l-.47 8.043z" class="O"/><path d="M102.725 80.791c.786.986 1.998 2.123 3.521 2.347.727.108 1.438-.049 2.092-.339-.073.01-1.919.237-2.656-1.079-.75-1.343-1.562-3.477-2.677-2.765-.482.307-.46 1.069-.28 1.836z" fill="#eac3a2"/><g class="C"><path d="M87.785 119.557s-1.139 1.04-.917 1.779 1.25 1.231 1.389 2.134.695 1.394 1.195 1.394h2.384s.368-.635-.521-.826-1.224-1.252-1.169-2.238-.083-2.297-.083-2.297l-1.889-.438-.389.492zm9.641.442s-.41 4.403.09 4.65l6.4-.013s0-.739-1.028-.903-2.834-.766-3.139-2.107-2.323-1.627-2.323-1.627z"/></g><path d="M92.866 88.404c1.317-2.953 2.123-3.802 1.969-4.718-.114-.683.349-12.722.349-12.722.156-.049.469-.092.641-.13.54-.12.987-.499 1.173-1.02.224-.628.402-1.554.398-2.716l.169.034 2.837.561s-.064.893-.066 1.734v.021a1.63 1.63 0 0 0 1.177 1.577l.67.193s1.042 2.974 1.241 6.028-1.895 4.383.015 10.487c1.951 6.235-11.3 2.303-10.572.671z" class="B"/><path d="M100.401 67.693l-.066 1.734c-1.587-.045-2.427-1.493-2.77-2.295l2.837.561z" fill="#e8945b"/><path d="M100.931 68.489s-3.755.062-3.758-2.278-.489-3.906 1.909-4.046 2.864.754 3.055 1.535-.229 4.712-1.206 4.788z" class="B"/><g class="F"><path d="M100.792 62.109s-1.028 2.745-2.607 3.15-2.262-.017-2.262-.017 1.21-.962 1.462-2.64c0 0 2.631-1.799 3.407-.493z"/><path d="M100.537 62.331s.763.286 1.077.842c.307.544.568 1.264.507 2.147 0 0 .776-1.866-.096-2.921-.922-1.119-1.488-.069-1.488-.069z"/></g><path d="M92.503 76.291s-.095 1.345 0 2.958c.063 1.069 1.145 2.502 1.299 2.856.385.889.819 1.033.819 1.033l3.36.824 1.181.289 3.726-1.113s1.697-4.737 1.016-7.403-1.723-4.518-1.723-4.518-3.041 2.976-6.999-.253l-2.68 5.327z" class="O"/><path d="M93.487 79.684c.064 1.07.162 2.066.315 2.42.385.889.819 1.033.819 1.033l3.36.823 1.46-.428s-4.873-.739-4.333-4.93l-1.623 1.081z" fill="#f2ccaa"/><path d="M102.652 83.857s1.846 5.743 1.964 7.699-3.527 27.779-3.674 28.68c-.138.849-1.192 1.39-1.192 1.39s-.485.286-1.178.091c-.96-.272-1.264-.596-1.264-.596s-1.436-18.417-.547-24.996.899-12.268.899-12.268h4.992z" fill="#ed7d2b"/><path d="M94.835 83.686s-2.815 3.776-3.077 6.329-.412 11.521-.971 14.01-2.613 7.277-2.613 15.04c0 0 .213.445.873.681a6.94 6.94 0 0 0 .768.212c.544.126 1.101-.14 1.35-.639 1.388-2.797 5.812-11.813 6.039-13.686.16-1.324 1.557-10.091 4.604-15.235.732-1.236-.449-6.147-.449-6.147l-6.522-.564z" class="D"/><path d="M102.947 82.971s-.741.586-2.212.616c-1.758.035-6.113-.448-6.113-.448s-.194.541-.186 1.112c0 0 5.319 1.341 8.402.196 0 0 .397-.748.109-1.475z" class="C"/><path d="M100.62 84.193c0 .354.241.642.536.642s.536-.288.536-.642-.24-.642-.536-.642-.536.288-.536.642zm-.266 0c0-.5.36-.908.802-.908s.803.408.803.908-.36.907-.803.907-.802-.407-.802-.907z" class="E"/><path d="M88.895 84.009l5.45 4.746 6.496-7.46-5.45-4.746-6.496 7.46z" fill="#b5453c"/><path d="M95.851 84.027s1.997.234 1.991.708-.498 1.448-.744 1.49-1.625-1.316-1.625-1.316l.379-.882z" class="B"/><path d="M95.183 70.964s-2.666.187-3.688 2.671l-2.961 7.358c0 .702 1.083 2.864 6.9 4.108 0 0 .602-.632.565-1.133 0 0-3.631-3.119-3.621-3.483.019-.69.595-1.599 3.783-4.788.867-.867-.978-4.732-.978-4.732z" class="O"/><g class="D"><path d="M114.98 34.143h-2.327v91.148h2.327V34.143z"/><path d="M116.356 124.641h-5.079a1.57 1.57 0 0 1 1.571-1.57h1.937a1.57 1.57 0 0 1 1.571 1.57zm161.889-90.498h-2.327v91.148h2.327V34.143z"/><path d="M279.621 124.641h-5.079a1.57 1.57 0 0 1 1.571-1.57h1.937a1.57 1.57 0 0 1 1.571 1.57zm-5.079-87.901h5.079a1.57 1.57 0 0 1-1.571 1.571h-1.937a1.57 1.57 0 0 1-1.571-1.571zm-60.178-2.597h-2.327v91.148h2.327V34.143z"/><path d="M215.739 124.641h-5.078a1.57 1.57 0 0 1 1.571-1.57h1.936a1.57 1.57 0 0 1 1.571 1.57zm-5.078-87.901h5.078a1.57 1.57 0 0 1-1.571 1.571h-1.936a1.57 1.57 0 0 1-1.571-1.571zm-99.384 0h5.079a1.57 1.57 0 0 1-1.571 1.571h-1.937a1.57 1.57 0 0 1-1.571-1.571zm-57.632-2.597h-2.327v91.148h2.327V34.143z"/><path d="M55.021 124.641h-5.078a1.57 1.57 0 0 1 1.571-1.57h1.937a1.57 1.57 0 0 1 1.571 1.57zM49.943 36.74h5.078a1.57 1.57 0 0 1-1.571 1.571h-1.937a1.57 1.57 0 0 1-1.571-1.571z"/></g><path d="M32.888 124.435H22.272v-15.951h10.616v15.951z" class="J"/><g class="D"><path d="M36.092 108.484H22.163c-3.035 0-5.729-1.93-6.704-4.803L9.687 86.673c-.312-.919.18-1.916 1.098-2.228s1.916.181 2.227 1.099l5.772 17.008c.491 1.448 1.849 2.421 3.379 2.421h13.929c.97 0 1.756.787 1.756 1.756s-.786 1.755-1.756 1.755z"/><path d="M32.888 100.663H14.976v-2.536h15.43c1.371 0 2.482 1.112 2.482 2.482v.054z"/></g><path d="M34.762 124.641H20.879v-.2a1.65 1.65 0 0 1 1.649-1.649h10.586a1.65 1.65 0 0 1 1.649 1.649v.2z" class="J"/><path d="M172.658 83.076s2.46.698 3.067 1.516.763 10.044 1.158 10.438c.853.853 1.449 2.53 2.101 4.022 0 0 .157.274-.524.274s-3.001-2.259-3.212-3.222-2.59-13.028-2.59-13.028z" class="H"/><path d="M168.16 78.324s.552.954.376 1.408.904 1.243 1.34 1.007-1.716-2.415-1.716-2.415z" class="P"/><path d="M188.057 124.16c.064.631.877.605 1.795.45s.682.112 1.973.078 1.721-.519 1.776-.724c.05-.182-.577-.308-1.248-.459l-.254-.058c-.757-.18-1.344-.681-1.934-1.288-.219-.225-1.182-3.014-1.182-3.014l-1.738.136s1.11 2.168 1.222 2.87c.072.45-.313.951-.371 1.349-.03.217-.061.439-.039.66z" class="H"/><path d="M189.852 124.61c.918-.155.682.112 1.973.078s1.721-.519 1.776-.724c.05-.182-.577-.308-1.248-.459l-.008.014s-.814.523-1.881.449c-.87-.06-1.768-.421-2.368-.468-.03.217-.061.439-.039.66.064.631.877.605 1.795.45z" class="F"/><path d="M189.791 121.352l-1.482.264-3.759-5.827c-1.187-1.946-2.234-3.821-2.397-4.617-.397-1.957-.353-3.713-1.153-3.737-.403-.013-3.13.403-5.936.451-2.753.046-5.582-.265-6.362-1.687-1.575-2.872.89-7.499.89-7.499s11.968 1.802 14.163 3.238l.015.01c.76.521 1.714 3.001 2.637 6.023 1.747 5.719 3.384 13.381 3.384 13.381z" class="H"/><path d="M186.407 107.971l-1.857 7.818c-1.187-1.946-2.234-3.821-2.397-4.617-.397-1.956-.353-3.713-1.153-3.737-.403-.013-3.13.403-5.936.451-.642-1.234-.918-2.391-.565-3.325 1.01-2.686 5.855-2.931 9.271-2.613.76.521 1.714 3.001 2.637 6.023z" fill="#e89258"/><path d="M181.066 124.16c.063.631.876.605 1.793.45s.682.112 1.975.078 1.72-.519 1.776-.724c.049-.182-.578-.308-1.249-.459l-.254-.058c-.757-.18-1.345-.681-1.934-1.288-.219-.225-.241-2.487-.241-2.487l-1.659-.073s.165 1.229.203 2.552c.013.457-.314.951-.371 1.349-.032.217-.062.439-.039.66z" class="H"/><path d="M182.859 124.61c.92-.155.682.112 1.975.078s1.72-.519 1.776-.724c.049-.182-.578-.308-1.249-.459l-.007.014s-.815.523-1.882.449c-.869-.06-1.768-.421-2.367-.468-.032.217-.062.439-.039.66.063.631.876.605 1.793.45z" class="F"/><g class="H"><path d="M169.166 101.709s11.499-.822 13.695.615.193 19.428.193 19.428l-1.578.399-2.235-9.586c-.806-3.393.493-5.106-.306-5.13s-10.725 1.636-12.3-1.236.162-5.791.162-5.791l2.369 1.301zm1.589-17.16c.938.217 2.155-.456 2.143-.46-.165-.069-.23-.72-.251-1.409l-.004-.13.012-1.563-2.838-.45-.169-.027.007.185c.048 1.993-.405 2.465-.579 2.787-.239.443.794.864 1.679 1.068z"/></g><path d="M169.655 80.694c.517.831 1.394 1.769 2.987 1.772l.013-1.479-2.838-.45-.169-.027.007.185z" fill="#e89258"/><path d="M169.351 80.165s-.933-1.198-1.233-2.27c-.214-.766-.1-3.693 2.843-3.561 0 0 .851.001 1.696.459.671.363 1.671 1.193.901 3.814l-.181.878-4.026.681z" class="P"/><path d="M173.064 81.437s-3.642.417-3.867-1.856-.845-3.747 1.469-4.11 2.855.46 3.114 1.2.225 4.598-.716 4.766z" class="H"/><path d="M175.895 91.386c-.757 4.598-.862 7-.813 8.249.04 1.057.189 1.288.146 1.326-.639.554-1.38.301-3.43.559-.533.068-1.072.196-1.593.423-.274.118-.558.154-.841.129-1.43-.124-2.847-1.763-2.847-1.818l.002-.011.029-.097.012-.04.773-2.343c.23-.871.373-1.805.192-2.561-.054-.225-.287-1.523-.463-3.048-.229-1.984-.363-4.356.115-5.262l2.183-3.937c3.071 1.823 3.298.121 3.298.121s3.971 3.856 3.237 8.31z" class="L"/><g class="P"><path d="M170.523 76.688s3.127-1.054 3.257-.016c0 0 .673-1.937-.69-2.505s-3.794-.568-5.157.931l2.59 1.59z"/><path d="M170.523 76.688s-.237 1.725-1.572 1.737-1.018-3.328-1.018-3.328l2.59 1.59z"/></g><path d="M185.358 104.85l-1.623.139c-.682.046-4.751 2.902-4.751 2.902s-1.838.019-5.902-.007c-4.599-.029-5.62.011-5.62.011-1.772-1.445-1.778-3.72-1.647-5.008.032-.309.362-1.485.702-2.634l.002-.011.029-.098.012-.039.715-2.359.058.016 3.166.865 4.582 1.007h.001c1.685.246 4.466.845 6.468 1.342l2.34.677c.699.349 1.468 3.197 1.468 3.197z" class="L"/><path d="M178.984 107.891s-1.838.019-5.902-.007c-4.599-.029-5.62.011-5.62.011-1.772-1.445-1.778-3.72-1.647-5.008.032-.309.362-1.485.702-2.634l.002-.011.029-.098.012-.039.715-2.359.058.016c.23-.871.373-1.805.192-2.561-.054-.225-.287-1.523-.463-3.048l.959-.088s2.57 4.272 2.479 6.544l-.001.017c-.046.994-.605 2.251-1.135 3.444-.682 1.534-1.314 2.962-.744 3.592 1.017 1.125 8.17.196 10.364 2.228z" class="F"/><path d="M169.36 82.955s-2.78.59-3.545 1.719c-1.435 2.118-1.618 11.125-1.049 12.123s3.155 2.555 7.688 4.158c0 0 .417-.358.3-1.122 0 0-5.146-4.416-5.23-4.632s.941-5.148.818-5.634 1.018-6.613 1.018-6.613z" class="H"/><path d="M168.048 83.33s-2.054.555-2.455 1.745-1.127 4.721-1.127 4.721.349 2.119 4.154 2.321l1.028-6.865-1.6-1.922z" class="L"/><path d="M169.456 74.329s-.675-1-2.636 0-2.885 5.352-2.816 6.583c.113 2.043.471 3.393 2.487 3.14s1.488 5.014 1.684 6.378 1.916 2.09 1.916 2.09.032-.908 1.061-1.408 1.734-2.794 1.097-4.02-1.499-4.136-2.889-4.137c-.995 0-1.448-3.679-.609-5.813.624-1.59.705-2.813.705-2.813z" class="P"/><path d="M172.658 83.076s2.59.822 3.067 1.516 1.398 5.123 1.398 5.123-.887 1.021-2.079 1.124-2.386-7.764-2.386-7.764z" class="L"/><path d="M175.657 98.064l2.998-.318s.917 2.453.833 2.873-.355.717-.969.875-3.493.652-3.493.652l.631-4.082z" fill="#739af0"/><g fill="#4a75cb"><path d="M173.862 97.973s-1.347 2.926-1.204 3.561c.098.434 1.432.67 2.368.612a.77.77 0 0 0 .724-.79l-.093-3.292-1.795-.09z"/><path d="M173.862 97.973s2.46-.75 4.793-.227l-2.998.318-1.795-.09z"/><path d="M174.926 98.092c-.003-.015-.08-.382-.074-.778.012-.721.294-.951.528-1.017.273-.077.545-.035.789.122.393.254.677.784.779 1.454l-.268.041c-.089-.585-.336-1.057-.659-1.266-.179-.114-.369-.145-.567-.089-.442.125-.334 1.133-.261 1.476l-.267.057z"/></g><path d="M176.188 98.092c-.003-.015-.079-.382-.073-.778.012-.721.293-.951.527-1.017.273-.077.545-.035.788.122.394.254.679.784.781 1.454l-.269.041c-.09-.585-.337-1.057-.66-1.266-.178-.114-.368-.145-.566-.089-.442.125-.334 1.133-.261 1.476l-.267.057z" fill="#739af0"/><g class="H"><path d="M172.362 99.496s.807.541 1.284.568 1.057-.04 1.449.454.681.885.655 1.107-.842.153-1.269 0-.981-.015-1.38-.307-.647-.363-.647-.363l-.092-1.459zm6.76-.415s-.801 1.08-.534 1.387.788.466 1.04.232.455-.986.312-1.221-.818-.398-.818-.398z"/></g><path d="M175.356 125.1H164.74v-13.713h10.616V125.1z" class="J"/><g class="D"><path d="M178.559 111.387h-13.928a7.08 7.08 0 0 1-6.705-4.805l-5.771-17.006c-.311-.919.18-1.916 1.098-2.228s1.916.181 2.227 1.099l5.773 17.007c.49 1.448 1.849 2.421 3.378 2.421h13.928c.971 0 1.757.786 1.757 1.756s-.786 1.756-1.757 1.756z"/><path d="M175.356 101.857h-18.699v-2.536h16.163c1.4 0 2.536 1.135 2.536 2.536z"/></g><path d="M179.022 124.641h-17.467a1.85 1.85 0 0 1 1.849-1.849h13.769a1.85 1.85 0 0 1 1.849 1.849z" class="J"/><g class="N"><path d="M90.124 42.647H75.265c-.754 0-1.371-.617-1.371-1.371v-1.594c0-.754.617-1.372 1.371-1.372h14.859c.754 0 1.371.618 1.371 1.372v1.594c0 .754-.617 1.371-1.371 1.371zm163.09 0h-14.86c-.754 0-1.371-.617-1.371-1.371v-1.594c0-.754.617-1.372 1.371-1.372h14.86c.754 0 1.371.618 1.371 1.372v1.594c0 .754-.617 1.371-1.371 1.371z"/></g><path d="M327.618 125.559H.382c-.21 0-.382-.171-.382-.381v-.155c0-.21.172-.382.382-.382h327.236c.21 0 .382.172.382.382v.155c0 .21-.172.381-.382.381z" fill="#2e3552"/></g><defs><clipPath id="A"><path transform="matrix(1 0 0 -1 0 125.559)" d="M0 0h328v125.559H0z" class="E"/></clipPath></defs></svg>