<svg xmlns="http://www.w3.org/2000/svg" height="682.667" viewBox="0 0 512 512" width="682.667"><path d="M423.402 302H87.598L0 512h512zm0 0" fill="#9ed0ff"/><path d="M512 512H256V302h167.402zm0 0" fill="#73bcff"/><path d="M403.598 332H107.402L45 482h421zm0 0" fill="#3aaaff"/><path d="M466 482H256V332h147.598zm0 0" fill="#0095ff"/><path d="M256 0c-74.398 0-135 61.598-135 136 0 25.5 7.199 51.398 20.699 73L256 390.199 370.301 209c13.5-21.602 20.699-47.5 20.699-73C391 61.598 330.398 0 256 0zm0 212c-41.398 0-75-34.602-75-76s33.602-76 75-76 75 34.602 75 76-33.602 76-75 76zm0 0" fill="#ff9f00"/><path d="M177.383 315.141l29.766 3.719-22.496 180.004-29.766-3.719zm0 0" fill="#9ed0ff"/><path d="M327.266 498.902l-23.074-180 29.77-3.805 23.07 180zm0 0" fill="#73bcff"/><path d="m67.5 392h376v30h-376zm0 0" fill="#9ed0ff"/><path d="M391 136c0 25.5-7.199 51.398-20.699 73L256 390.199V212c41.398 0 75-34.602 75-76s-33.602-76-75-76V0c74.398 0 135 61.598 135 136zm0 0" fill="#ff7816"/><path d="M256 392h187.5v30H256zm0 0" fill="#73bcff"/></svg>