<svg xmlns="http://www.w3.org/2000/svg" height="512" width="512"><path d="M512 256c0 76.38-33.45 144.94-86.5 191.85-19.79 17.5-319.21 17.5-339 0C33.45 400.94 0 332.38 0 256 0 114.62 114.62 0 256 0s256 114.62 256 256z" fill="#336b90"/><path d="M512 256l-.061-5.45L347.216 85.827l-43.923 234.696 82.895 135.566c20.969-2.082 35.454-4.828 39.312-8.239C478.55 400.94 512 332.38 512 256z" fill="#205077"/><path d="M256 43.75c-5.577 0-123.456-5.068-123.456 155.984v202.723h246.913V199.734C379.457 38.682 261.577 43.75 256 43.75z" fill="#fbe280"/><path d="M379.46 199.73v202.73H256V43.75c5.58 0 123.46-5.07 123.46 155.98z" fill="#efc859"/><path d="M199.97 250.232h112.06v118.84H199.97z" fill="#eaa678"/><path d="M256 250.236h56.03v118.84H256z" fill="#d38c5b"/><path d="m344.251 152.225c-3.728-56.6-49.511-77.517-88.251-77.517s-84.523 20.917-88.251 77.517c-10.018 1.938-17.134 15.077-16.014 25.701l1.717 24.177c1.175 11.157 10.982 19.301 21.79 18.089l1.864-.202c22.138 59.446 56.857 65.644 78.894 69.124 22.038-3.48 56.756-9.678 78.894-69.124l1.864.202c10.807 1.212 20.614-6.932 21.79-18.089l1.717-24.177c1.12-10.624-5.996-23.763-16.014-25.701z" fill="#ffc397"/><path d="M360.265 177.926l-1.717 24.177c-1.175 11.157-10.982 19.301-21.79 18.089l-1.864-.202c-7.566 20.293-16.592 34.388-26.078 44.277-18.291 19.081-38.299 22.552-52.817 24.847V74.708c38.74 0 84.523 20.917 88.251 77.517 10.019 1.938 17.135 15.077 16.015 25.701z" fill="#eaa678"/><path d="m350.532 130.658c-1.126-24.777-22.525-65.322-72.455-67.95h-5.819c-122.282-8.621-106.823 96.398-106.823 96.398 93.013 12.587 106.917-44.403 106.917-44.403l2.103-7.732c7.659 20.556 26.959 69.103 60.685 81.125 0 .001 16.519-32.66 15.392-57.438z" fill="#fbe280"/><path d="M335.14 188.1c-33.73-12.03-53.03-60.57-60.68-81.13l-2.11 7.73s-3.13 12.83-16.35 24.96V62.23c5.13-.08 10.54.08 16.26.48h5.82c49.93 2.63 71.33 43.17 72.45 67.95 1.13 24.78-15.39 57.44-15.39 57.44z" fill="#efc859"/><path d="m179.344 188.097s-20.084-24.589-21.774-51.432l48.804 1.9s-2.253 36.392-27.03 49.532z" fill="#fbe280"/><path d="M199.97 324.824h112.06v118.84H199.97z" fill="#ffc397"/><path d="M256 324.824h56.03v118.84H256z" fill="#eaa678"/><path d="M358.64 490.59a253.13 253.13 0 0 1-27.18 10.1C307.61 508.04 282.26 512 256 512s-51.61-3.96-75.46-11.31a253.13 253.13 0 0 1-27.18-10.1l27.18-165.77h19.43s3.42 83.64 56.03 109.55c52.61-25.91 56.03-109.55 56.03-109.55h19.43z" fill="#ea9611"/><path d="M358.64 490.59a253.13 253.13 0 0 1-27.18 10.1C307.61 508.04 282.26 512 256 512v-77.63c14.61-7.19 25.42-18.84 33.43-31.91 20.82-34 22.6-77.64 22.6-77.64h19.43l12.73 77.64z" fill="#cc7a05"/><path d="M180.54 324.82v175.87c-35.19-10.83-67.14-29.05-94.04-52.84V380.4c0-30.7 24.88-55.58 55.57-55.58z" fill="#fff"/><path d="M425.5 380.4v67.45c-26.9 23.79-58.85 42.01-94.04 52.84V324.82h38.47c30.69 0 55.57 24.88 55.57 55.58z" fill="#dbdbdb"/></svg>