<svg xmlns="http://www.w3.org/2000/svg" height="512" width="512"><path d="M0 256C0 114.615 114.615 0 256 0s256 114.615 256 256c0 68.286-26.737 130.328-70.312 176.228-46.647 49.134-112.589 11.436-185.688 11.436s-139.041 37.699-185.688-11.436C26.736 386.328 0 324.286 0 256z" fill="#5de9f4"/><path d="M133.374 244.909l209.379 209.379c37.939 5.716 71.721 6.606 98.934-22.06C485.263 386.328 512 324.286 512 256l-.077-6.314L351.025 88.787z" fill="#4bc5ef"/><path d="M199.97 256h112.06v75.598H199.97z" fill="#eaa678"/><path d="M256 256.002h56.03v75.599H256z" fill="#d38c5b"/><path d="M199.97 327.29h112.06v116.374H199.97z" fill="#ffc397"/><path d="M256 327.29h56.03v116.374H256z" fill="#eaa678"/><path d="m441.69 381.46v50.77c-42.24 44.48-100.28 73.81-165.14 78.95-6.78.55-13.63.82-20.55.82s-13.77-.27-20.55-.82c-64.86-5.14-122.9-34.47-165.14-78.95v-50.77c0-29.92 24.25-54.17 54.17-54.17h45.15s48.01 78.16 86.37 78.16 86.37-78.16 86.37-78.16h45.15c29.92 0 54.17 24.25 54.17 54.17z" fill="#dd4571"/><path d="M441.69 381.46v50.77C395.04 481.36 329.1 512 256 512V400.38c52.191 10.552 86.373-73.09 86.373-73.09h45.147c29.92 0 54.17 24.25 54.17 54.17zm-284.36 38.185v72.625c-11.17-4.66-21.95-10.11-32.25-16.25v-56.375z" fill="#c12156"/><path d="m386.92 419.645v56.375c-10.3 6.14-21.08 11.59-32.25 16.25v-72.625z" fill="#990541"/><path d="m256 417.392c-47.627 0-86.373-38.747-86.373-86.373v-3.729h30.343v3.729c0 31.084 24.946 56.373 56.03 56.373s56.03-25.289 56.03-56.373v-3.729h30.343v3.729c0 47.626-38.747 86.373-86.373 86.373z" fill="#fbe280"/><path d="m342.37 327.29v3.73c0 40.54-28.08 74.66-65.82 83.89-6.59 1.62-13.47 2.48-20.55 2.48v-30c31.08 0 56.03-25.29 56.03-56.37v-3.73z" fill="#efc859"/><path d="m344.251 152.225c-3.728-56.6-49.511-77.517-88.251-77.517s-84.523 20.917-88.251 77.517c-10.018 1.938-17.134 15.077-16.014 25.701l1.717 24.177c1.175 11.157 10.982 19.301 21.79 18.089l1.864-.202c22.139 59.446 56.857 65.644 78.894 69.125 22.037-3.48 56.756-9.678 78.894-69.125l1.864.202c10.807 1.212 20.614-6.932 21.79-18.089l1.717-24.177c1.12-10.624-5.996-23.763-16.014-25.701z" fill="#ffc397"/><path d="M360.265 177.926l-1.717 24.177c-1.175 11.157-10.982 19.301-21.79 18.089l-1.864-.202c-7.566 20.293-16.592 34.388-26.078 44.277-18.291 19.081-38.299 22.552-52.817 24.847V74.708c38.74 0 84.523 20.917 88.251 77.517 10.019 1.938 17.135 15.077 16.015 25.701z" fill="#eaa678"/><path d="M258.608 43.659h-7.497c-65.024 0-117.737 52.713-117.737 117.737v83.513h55.382C163.05 111.665 256 101.942 256 101.942s2.669 35.902 36.362 51.15c40.92 18.519 30.878 91.817 30.878 91.817h52.557v-84.061c0-64.722-52.467-117.189-117.189-117.189z" fill="#515151"/><path d="M375.8 160.85v84.06h-52.56s10.04-73.3-30.88-91.82C258.67 137.84 256 101.94 256 101.94V43.66h2.61c64.72 0 117.19 52.47 117.19 117.19z" fill="#3d3d3d"/></svg>