<svg xmlns="http://www.w3.org/2000/svg" width="682.667" height="682.667" viewBox="0 0 512 512" preserveAspectRatio="xMidYMid meet"><path d="M24.2 162c-3.2 1.5-4.7 3-6.2 6.2-1.9 4.1-2 7.2-2 79.8s.1 75.7 2 79.8c1.5 3.3 2.9 4.7 6.2 6.2 4.2 1.9 8.5 2 222.8 2 240.4 0 224.9.4 237.1-6.1 8.1-4.4 13.1-8.9 18.3-16.7 10.6-16 12.2-31.1 5.2-49.1-17.4-45-52.6-79.1-98-95-4.9-1.7-14.3-4.4-21-5.8l-12.1-2.7-174-.3c-171-.3-174.1-.3-178.3 1.7zm87.8 54v24H80 48v-24-24h32 32v24zm96 0v24h-32-32v-24-24h32 32v24zm96 0v24h-32-32v-24-24h32 32v24zm68.8-23c28.1 3.6 53.5 15.6 73.5 34.9 4.9 4.7 9.3 9.3 9.8 10.3.9 1.7-1.9 1.8-59.6 1.8H336v-24-24h14.3c7.8 0 17.9.5 22.5 1zM8.2 370c-10.8 4.9-10.8 23.1 0 28 4.2 1.9 8.8 2 247.8 2l247.8-2c10.8-4.9 10.8-23.1 0-28-4.2-1.9-8.8-2-247.8-2L8.2 370z"/></svg>