<?xml version="1.0" standalone="no"?>
<!DOCTYPE svg PUBLIC "-//W3C//DTD SVG 20010904//EN"
 "http://www.w3.org/TR/2001/REC-SVG-20010904/DTD/svg10.dtd">
<svg version="1.0" xmlns="http://www.w3.org/2000/svg"
 width="512.000000pt" height="512.000000pt" viewBox="0 0 512.000000 512.000000"
 preserveAspectRatio="xMidYMid meet">
<metadata>
Created by potrace 1.14, written by Peter Selinger 2001-2017
</metadata>
<g transform="translate(0.000000,512.000000) scale(0.100000,-0.100000)"
fill="#000000" stroke="none">
<path d="M989 5116 c-2 -2 -22 -6 -44 -9 -343 -49 -666 -282 -825 -596 -33
-66 -86 -213 -94 -262 -3 -19 -10 -56 -15 -84 -6 -29 -10 -371 -11 -827 l0
-778 811 0 c447 0 810 -2 808 -4 -2 -2 -31 -6 -64 -9 -311 -30 -682 -248 -856
-504 -18 -26 -36 -50 -40 -53 -11 -8 -106 -191 -129 -249 -85 -217 -108 -525
-56 -736 14 -56 21 -78 38 -130 40 -122 136 -301 213 -395 88 -108 231 -231
350 -302 85 -51 239 -117 307 -133 201 -46 127 -43 1468 -44 1070 0 1268 2
1340 15 224 39 420 137 583 293 170 162 276 357 333 611 4 19 9 396 11 837 l4
803 -802 0 c-441 0 -800 2 -798 4 2 2 29 7 59 10 61 7 216 47 276 72 326 132
576 374 717 695 125 281 133 648 23 940 -142 376 -435 655 -816 778 -189 61
-155 60 -1531 60 -691 1 -1258 -1 -1260 -3z"/>
</g>
</svg>
